<svg id="Layer_1" data-name="Layer 1" xmlns="http://www.w3.org/2000/svg" viewBox="0 0 16.13 16.13"><defs><style>.cls-1{fill:#383838;}.cls-2{fill:#fff;}</style></defs><title>tooltip</title><circle class="cls-1" cx="8.07" cy="8.07" r="8.07"/><path class="cls-2" d="M5.89,5.7a2.43,2.43,0,0,1,.48-.82,2.14,2.14,0,0,1,.76-.54,2.54,2.54,0,0,1,1-.19,2.77,2.77,0,0,1,.92.14,2.06,2.06,0,0,1,.71.42,1.88,1.88,0,0,1,.47.67,2.34,2.34,0,0,1,.17.91,2,2,0,0,1-.08.6,2.15,2.15,0,0,1-.21.48,2.47,2.47,0,0,1-.3.4l-.34.35-.34.33a2.71,2.71,0,0,0-.3.35,1.7,1.7,0,0,0-.22.41,1.46,1.46,0,0,0-.08.5v.42H7.63v-.5a2.06,2.06,0,0,1,.17-.77,2.43,2.43,0,0,1,.35-.56,4.88,4.88,0,0,1,.44-.46A5,5,0,0,0,9,7.39a1.94,1.94,0,0,0,.32-.51,1.53,1.53,0,0,0,.1-.68,1.39,1.39,0,0,0-.38-.92,1.25,1.25,0,0,0-.92-.33,1.47,1.47,0,0,0-.67.14A1.37,1.37,0,0,0,7,5.46,1.51,1.51,0,0,0,6.73,6a2.7,2.7,0,0,0-.09.7H5.73A2.86,2.86,0,0,1,5.89,5.7Zm2.79,5.1V12H7.48V10.8Z"/></svg>