<svg id="Layer_1" data-name="Layer 1" xmlns="http://www.w3.org/2000/svg" viewBox="0 0 169.57 25.5"><title>exam__training</title><path d="M14.44,3.49H4V7.68h9.57V11.1H4v5.06h10.9V19.7H0V0H14.44Z"/><path d="M15.88,19.7l5-7.38L16.09,5.16h4.66l2.43,4.22,2.38-4.22h4.53l-4.78,7.09,5,7.44H25.54L23,15.32,20.5,19.7Z"/><path d="M37.39,10.84a6,6,0,0,0,1.52-.33,1.15,1.15,0,0,0,.82-1.08,1.28,1.28,0,0,0-.63-1.24,4,4,0,0,0-1.85-.34,2.43,2.43,0,0,0-1.94.67,2.75,2.75,0,0,0-.54,1.34H31.1a5.57,5.57,0,0,1,1.07-3.14q1.52-1.92,5.21-1.92a9.29,9.29,0,0,1,4.27.95,3.64,3.64,0,0,1,1.87,3.58V16q0,.69,0,1.68a2.12,2.12,0,0,0,.23,1,1.36,1.36,0,0,0,.56.44v.56H40.19a4.22,4.22,0,0,1-.24-.83q-.07-.39-.11-.88A7.86,7.86,0,0,1,38,19.45a5.52,5.52,0,0,1-2.8.71A4.82,4.82,0,0,1,31.93,19a4,4,0,0,1-1.3-3.2,4.15,4.15,0,0,1,2.09-3.89A9.32,9.32,0,0,1,36.09,11Zm2.33,1.78A4.21,4.21,0,0,1,39,13a6.25,6.25,0,0,1-1,.26l-.87.16a5.7,5.7,0,0,0-1.75.52,1.74,1.74,0,0,0-.9,1.62A1.69,1.69,0,0,0,35,17a2.09,2.09,0,0,0,1.34.43,4,4,0,0,0,2.3-.72A3.06,3.06,0,0,0,39.72,14Z"/><path d="M64.86,5.19a4.24,4.24,0,0,1,1.7,1.31,4.19,4.19,0,0,1,.83,1.87,12.94,12.94,0,0,1,.13,2.15l0,9.18h-3.9V10.43a3,3,0,0,0-.27-1.36,1.9,1.9,0,0,0-1.87-1,2.19,2.19,0,0,0-2.18,1.31A4.11,4.11,0,0,0,59,11V19.7H55.13V11a4.87,4.87,0,0,0-.27-1.88A1.87,1.87,0,0,0,53,8.09a2.25,2.25,0,0,0-2.19,1.06,4.07,4.07,0,0,0-.31,1.79V19.7H46.62V5.16h3.7V7.29a6.13,6.13,0,0,1,1.34-1.62,5.29,5.29,0,0,1,5.57-.12A4.28,4.28,0,0,1,58.49,7.3a4.84,4.84,0,0,1,1.86-1.88A5.67,5.67,0,0,1,63,4.82,5.07,5.07,0,0,1,64.86,5.19Z"/><path d="M73.73,15.05a2.53,2.53,0,0,0,.52,1.44,3.55,3.55,0,0,0,2.63.76,4,4,0,0,0,1.79-.33,1.12,1.12,0,0,0,.13-2,21.87,21.87,0,0,0-4-1.15,8.27,8.27,0,0,1-3.5-1.54,3.33,3.33,0,0,1-1-2.62A4.54,4.54,0,0,1,71.9,6.17a6.38,6.38,0,0,1,4.47-1.45,8.21,8.21,0,0,1,4.45,1.09,4.66,4.66,0,0,1,2,3.76H79a2.25,2.25,0,0,0-.42-1.16,2.62,2.62,0,0,0-2.14-.77A3.09,3.09,0,0,0,74.65,8a1.11,1.11,0,0,0-.53.91,1,1,0,0,0,.56.95,24.36,24.36,0,0,0,4,1.06,7.29,7.29,0,0,1,3.41,1.62,3.67,3.67,0,0,1,1.12,2.74,4.42,4.42,0,0,1-1.61,3.53,7.59,7.59,0,0,1-5,1.37q-3.44,0-5.08-1.45a4.71,4.71,0,0,1-1.64-3.69Z"/><path d="M81,0H95.34V1.59H89.1V19.7H87.24V1.59H81Z"/><path d="M96.66,19.7H95V5.53h1.64V8.18h.05a4.75,4.75,0,0,1,1.77-2.37,5.37,5.37,0,0,1,2.86-.67V6.92a4.8,4.8,0,0,0-2.3.44,3.78,3.78,0,0,0-1.44,1.26,5,5,0,0,0-.74,1.87,12.09,12.09,0,0,0-.21,2.26Z"/><path d="M110,11.44l1.11-.16a4.17,4.17,0,0,0,1.05-.3.87.87,0,0,0,.51-.64,4.05,4.05,0,0,0,.1-.83,2.8,2.8,0,0,0-.81-2.07,3.77,3.77,0,0,0-2.72-.81,7.56,7.56,0,0,0-1.56.15,3.4,3.4,0,0,0-1.25.52,2.87,2.87,0,0,0-.88,1,4.17,4.17,0,0,0-.45,1.55h-1.67A5.07,5.07,0,0,1,104,7.68a4.36,4.36,0,0,1,1.27-1.45,5.29,5.29,0,0,1,1.81-.82,8.84,8.84,0,0,1,2.18-.26,8.4,8.4,0,0,1,2,.23,4.67,4.67,0,0,1,1.64.74A3.44,3.44,0,0,1,114,7.47a4.89,4.89,0,0,1,.4,2.08v7.72q0,1,.34,1.22t1.38-.12v1.29l-.56.16a2.56,2.56,0,0,1-.73.11,3.27,3.27,0,0,1-.74-.08,1.27,1.27,0,0,1-.66-.26,1.6,1.6,0,0,1-.4-.49,2,2,0,0,1-.21-.63,4.54,4.54,0,0,1-.05-.73,7.13,7.13,0,0,1-2.38,1.75,7,7,0,0,1-2.9.6,6.49,6.49,0,0,1-1.79-.25,4.34,4.34,0,0,1-1.52-.77,3.8,3.8,0,0,1-1-1.27,3.9,3.9,0,0,1-.38-1.79q0-3.61,5-4.27Zm2.76.82a8,8,0,0,1-2.11.57q-1.07.14-2.13.22a6,6,0,0,0-2.94.85,2.43,2.43,0,0,0-1.05,2.16,2.34,2.34,0,0,0,.26,1.14,2.39,2.39,0,0,0,.68.79,2.88,2.88,0,0,0,1,.47,4.35,4.35,0,0,0,1.14.15,7.45,7.45,0,0,0,1.92-.25,5.18,5.18,0,0,0,1.66-.75,3.84,3.84,0,0,0,1.16-1.29,3.72,3.72,0,0,0,.44-1.85Z"/><path d="M118,2.44V0h1.81V2.44Zm.08,17.27V5.53h1.64V19.7Z"/><path d="M124.55,19.7h-1.64V5.53h1.64v2a10.43,10.43,0,0,1,2-1.7,4.69,4.69,0,0,1,2.53-.66,6.46,6.46,0,0,1,2.44.45,4.16,4.16,0,0,1,1.89,1.57,3.54,3.54,0,0,1,.62,1.57,14.33,14.33,0,0,1,.1,1.68V19.7h-1.64V10.45a4.23,4.23,0,0,0-.85-2.87,3.6,3.6,0,0,0-2.82-1,4,4,0,0,0-1.4.23,4.39,4.39,0,0,0-1.14.62,4.11,4.11,0,0,0-.86.88,4.05,4.05,0,0,0-.55,1,5.21,5.21,0,0,0-.3,1.31q-.06.63-.05,1.37Z"/><path d="M138.05,2.44V0h1.81V2.44Zm.08,17.27V5.53h1.64V19.7Z"/><path d="M144.51,19.7h-1.64V5.53h1.64v2a10.43,10.43,0,0,1,2-1.7,4.69,4.69,0,0,1,2.53-.66,6.46,6.46,0,0,1,2.44.45,4.16,4.16,0,0,1,1.89,1.57A3.54,3.54,0,0,1,154,8.74a14.33,14.33,0,0,1,.1,1.68V19.7h-1.64V10.45a4.23,4.23,0,0,0-.85-2.87,3.6,3.6,0,0,0-2.82-1,4,4,0,0,0-1.4.23,4.39,4.39,0,0,0-1.14.62,4.11,4.11,0,0,0-.86.88,4.05,4.05,0,0,0-.55,1,5.21,5.21,0,0,0-.3,1.31q-.06.63-.05,1.37Z"/><path d="M167.93,5.53h1.64V18.33a12.58,12.58,0,0,1-.29,2.72,5.87,5.87,0,0,1-1,2.28,5.14,5.14,0,0,1-2,1.57,9.45,9.45,0,0,1-6,.19,5.82,5.82,0,0,1-1.83-1,4.31,4.31,0,0,1-1.08-1.33,3.33,3.33,0,0,1-.4-1.35h1.75a3.24,3.24,0,0,0,.6,1.3,3,3,0,0,0,1,.79,4.15,4.15,0,0,0,1.25.4,9,9,0,0,0,1.42.11,5.42,5.42,0,0,0,2.68-.57,3.93,3.93,0,0,0,1.53-1.5,5.79,5.79,0,0,0,.67-2.11,16.2,16.2,0,0,0,.12-2.41,5.08,5.08,0,0,1-2.18,2,6.54,6.54,0,0,1-2.89.67,6,6,0,0,1-2.8-.62,5.76,5.76,0,0,1-2-1.64,7,7,0,0,1-1.16-2.39,10.49,10.49,0,0,1-.38-2.85,11.59,11.59,0,0,1,.36-2.93A6.42,6.42,0,0,1,158,7.29a5.45,5.45,0,0,1,2-1.57A6.76,6.76,0,0,1,163,5.14a5.37,5.37,0,0,1,1.4.19,6.64,6.64,0,0,1,1.38.55,5.36,5.36,0,0,1,1.23.9A4.84,4.84,0,0,1,167.88,8h.05Zm0,7.14a8.75,8.75,0,0,0-.31-2.39,5.84,5.84,0,0,0-.92-1.92,4.33,4.33,0,0,0-1.5-1.27,4.42,4.42,0,0,0-2.05-.47,4.88,4.88,0,0,0-1.92.37,4.39,4.39,0,0,0-1.53,1.08,5,5,0,0,0-1,1.74,7,7,0,0,0-.37,2.37,9.23,9.23,0,0,0,.22,2.5,6,6,0,0,0,.88,2,4.36,4.36,0,0,0,1.53,1.38,4.57,4.57,0,0,0,2.22.51,4.17,4.17,0,0,0,2-.48,4.64,4.64,0,0,0,1.51-1.29A5.91,5.91,0,0,0,167.6,15,7.81,7.81,0,0,0,167.93,12.67Z"/></svg>