<svg id="Layer_1" data-name="Layer 1" xmlns="http://www.w3.org/2000/svg" viewBox="0 0 280.29 46.27"><defs><style>.cls-1{fill:#003c7f;}.cls-2{fill:#f04e23;}</style></defs><title>main__logo__simple</title><path class="cls-1" d="M150.94,32.65a7.41,7.41,0,0,0-3.57-2.73,43.45,43.45,0,0,0-6.72-1.65,15.24,15.24,0,0,1-3.52-.92,1.23,1.23,0,0,1-.69-1.13q0-2,3.36-2,4.56,0,5.32,2.69h5.54V19.46h-5.54v.89A14.76,14.76,0,0,0,139,19.06a9.43,9.43,0,0,0-6.52,2.2A7,7,0,0,0,130,26.64a6.62,6.62,0,0,0,2.61,5.47q2.61,2.06,8.5,3.08a13.71,13.71,0,0,1,3.84,1.07,1.73,1.73,0,0,1,1,1.57,2.09,2.09,0,0,1-1.07,1.8,5.35,5.35,0,0,1-3,.71,6.21,6.21,0,0,1-3.71-1.08,3.58,3.58,0,0,1-1.58-2.89h-5.67v2.93h-3.83V29.47a19.44,19.44,0,0,0-.7-6,6.05,6.05,0,0,0-2.6-3.18,9.18,9.18,0,0,0-4.93-1.18A16.13,16.13,0,0,0,109,22.57a8.5,8.5,0,0,0-7.27-3.51,14.68,14.68,0,0,0-7.88,2.5v-2.1H82.13v5.94h4v13.9H79.6v-9.4a20.27,20.27,0,0,0-.46-5.15,7.36,7.36,0,0,0-5-5.09,17.24,17.24,0,0,0-5.82-.84q-9.06,0-11.77,6.1l6.25,1.2a5.85,5.85,0,0,1,4.47-2,4.52,4.52,0,0,1,3.36,1.26,4.4,4.4,0,0,1,1.25,3.24v1.57a15,15,0,0,0-5.59-1.3,10.2,10.2,0,0,0-7.12,2.5,8,8,0,0,0-2.76,6.2,9,9,0,0,0,.16,1.73H53.47l-5.72-7.7,4.92-6.2h3.26V19.46H48.61l-4.79,7.06-4.36-7.06h-8.7V8.19H0v6.26H4.19V39H0v6.26H37.64L42.71,38l4.72,7.24h9.31V40.08A7,7,0,0,0,59,43.42a9.43,9.43,0,0,0,6.23,2.18,10.7,10.7,0,0,0,6.62-2.41v2H97.91V39.29h-4V27.84a12,12,0,0,1,5.64-1.76q3.16,0,3.16,4.29V45.23h11.77V39.29h-4V27.84A11.23,11.23,0,0,1,116,26.09q3.29,0,3.29,4v15.1h17.25V43.94q1.6,1.88,5.95,1.88,4.67,0,7.21-2.41a8.15,8.15,0,0,0,2.55-6.19A7.72,7.72,0,0,0,150.94,32.65ZM33.63,39.29H30.76V33.44H24.08V39H13.27V29.26H22V23H13.27V14.45H24.08v5.49h6v5.46h3.51l5.24,7.24ZM71.85,37.8Q69.14,40.49,67,40.49a2.85,2.85,0,0,1-2.26-1,3.57,3.57,0,0,1-.88-2.42,2.82,2.82,0,0,1,1.09-2.4,3.92,3.92,0,0,1,2.42-.83,9,9,0,0,1,4.49,1.86Z"/><path class="cls-2" d="M188.58,40.27a19.1,19.1,0,0,1-27.79,0,20.35,20.35,0,0,1-5.7-14.45,20.57,20.57,0,0,1,5.7-14.51,19.22,19.22,0,0,1,27.79,0,20.71,20.71,0,0,1,5.75,14.51A20.39,20.39,0,0,1,188.58,40.27Zm-4.42-24.81a12.66,12.66,0,0,0-9.45-4.25,12.85,12.85,0,0,0-9.5,4.25,15.08,15.08,0,0,0-3.9,10.36,15,15,0,0,0,3.9,10.31,12.69,12.69,0,0,0,19,0,15,15,0,0,0,4-10.31A15.12,15.12,0,0,0,184.16,15.46Z"/><path class="cls-2" d="M221.67,8.37a5,5,0,0,1,2.67.82V3.95a13.44,13.44,0,0,0-3.7-.55c-5.55,0-8.07,3.16-8.07,9.82V20h-8V14c0-3.87.93-5.62,3.65-5.62a5,5,0,0,1,2.67.82V3.95a13.44,13.44,0,0,0-3.7-.55c-5.55,0-8.07,3.16-8.07,9.82V20H195v5.07h4.16V45.23h5.45V25.05h8V45.23H218V25.05h5.7V20H218V14C218,10.11,218.94,8.37,221.67,8.37Z"/><path class="cls-2" d="M228.19,10a3.43,3.43,0,0,1,3.39,3.6,3.48,3.48,0,0,1-3.39,3.65,3.59,3.59,0,0,1-3.44-3.65A3.54,3.54,0,0,1,228.19,10Zm-2.72,10h5.45V45.23h-5.45Z"/><path class="cls-2" d="M247.61,24.18c-4.42,0-7.35,3.27-7.35,8.34,0,5.29,2.88,8.45,7.6,8.45a7.4,7.4,0,0,0,6.27-3.16v6.65a13.05,13.05,0,0,1-6.88,1.8c-7.45,0-12.64-5.56-12.64-13.58s5.34-13.58,13.2-13.58a12,12,0,0,1,6.32,1.58v6.49A8.43,8.43,0,0,0,247.61,24.18Z"/><path class="cls-2" d="M261.28,33.45C261.53,38.2,264.05,41,268,41c3.49,0,5.7-1.47,7.45-5L280,38.74c-2.67,5.07-6.58,7.53-11.92,7.53-7.6,0-12.48-5.34-12.48-13.58,0-7.85,5.09-13.58,12.48-13.58,7.66,0,12.18,4.85,12.18,13.25v1.09ZM268.21,24c-3.54,0-5.7,1.8-6.58,5.56h13C274.22,25.93,272,24,268.21,24Z"/><path class="cls-1" d="M36.45,5.13h1.67V1.69H40.9V11.79H39.17v1.69h5.51V11.79H42.93V1.69H45.7V5.13h1.67V0H36.45ZM57,7.1a6,6,0,0,0-.22-1.86,2,2,0,0,0-.82-1,2.77,2.77,0,0,0-1.53-.39,5.12,5.12,0,0,0-3.15,1.34V0H47.71V1.64h1.7v10.2h-1.7v1.64h5.16V11.84H51.24V6.71A5,5,0,0,1,54,5.49a1.16,1.16,0,0,1,.72.23,1,1,0,0,1,.37.59,9.45,9.45,0,0,1,.07,1.42v5.74h3.44V11.84H57ZM64,12.16a3,3,0,0,1-2.18-.8,3.41,3.41,0,0,1-1-2.1h7.89A5.3,5.3,0,0,0,67.13,5.2,5,5,0,0,0,63.7,3.84a4.85,4.85,0,0,0-3.42,1.4A4.66,4.66,0,0,0,58.8,8.79a4.58,4.58,0,0,0,1.53,3.62A5.38,5.38,0,0,0,64,13.75a6.17,6.17,0,0,0,2.66-.6,4.91,4.91,0,0,0,2.06-1.83l-1.63-.72A3.57,3.57,0,0,1,64,12.16ZM61.86,6.05a2.69,2.69,0,0,1,1.89-.72,2.84,2.84,0,0,1,2,.8,3.36,3.36,0,0,1,1,1.79H60.9A3.08,3.08,0,0,1,61.86,6.05Z"/></svg>