<svg id="Layer_1" data-name="Layer 1" xmlns="http://www.w3.org/2000/svg" viewBox="0 0 280.75 75.77"><defs><style>.cls-1{fill:#003c7f;}.cls-2{fill:#f04e23;}</style></defs><title>main__logo__alt</title><path class="cls-1" d="M150.94,32.65a7.41,7.41,0,0,0-3.57-2.73,43.45,43.45,0,0,0-6.72-1.65,15.24,15.24,0,0,1-3.52-.92,1.23,1.23,0,0,1-.69-1.13q0-2,3.36-2,4.56,0,5.32,2.69h5.54V19.46h-5.54v.89A14.76,14.76,0,0,0,139,19.06a9.43,9.43,0,0,0-6.52,2.2A7,7,0,0,0,130,26.64a6.62,6.62,0,0,0,2.61,5.47q2.61,2.06,8.5,3.08a13.71,13.71,0,0,1,3.84,1.07,1.73,1.73,0,0,1,1,1.57,2.09,2.09,0,0,1-1.07,1.8,5.35,5.35,0,0,1-3,.71,6.21,6.21,0,0,1-3.71-1.08,3.58,3.58,0,0,1-1.58-2.89h-5.67v2.93h-3.83V29.47a19.44,19.44,0,0,0-.7-6,6.05,6.05,0,0,0-2.6-3.18,9.18,9.18,0,0,0-4.93-1.18A16.13,16.13,0,0,0,109,22.57a8.5,8.5,0,0,0-7.27-3.51,14.68,14.68,0,0,0-7.88,2.5v-2.1H82.13v5.94h4v13.9H79.6v-9.4a20.27,20.27,0,0,0-.46-5.15,7.36,7.36,0,0,0-5-5.09,17.24,17.24,0,0,0-5.82-.84q-9.06,0-11.77,6.1l6.25,1.2a5.85,5.85,0,0,1,4.47-2,4.52,4.52,0,0,1,3.36,1.26,4.4,4.4,0,0,1,1.25,3.24v1.57a15,15,0,0,0-5.59-1.3,10.2,10.2,0,0,0-7.12,2.5,8,8,0,0,0-2.76,6.2,9,9,0,0,0,.16,1.73H53.47l-5.72-7.7,4.92-6.2h3.26V19.46H48.61l-4.79,7.06-4.36-7.06h-8.7V8.19H0v6.26H4.19V39H0v6.26H37.64L42.71,38l4.72,7.24h9.31V40.08A7,7,0,0,0,59,43.42a9.43,9.43,0,0,0,6.23,2.18,10.7,10.7,0,0,0,6.62-2.41v2H97.91V39.29h-4V27.84a12,12,0,0,1,5.64-1.76q3.16,0,3.16,4.29V45.23h11.77V39.29h-4V27.84A11.23,11.23,0,0,1,116,26.09q3.29,0,3.29,4v15.1h17.25V43.94q1.6,1.88,5.95,1.88,4.67,0,7.21-2.41a8.15,8.15,0,0,0,2.55-6.19A7.72,7.72,0,0,0,150.94,32.65ZM33.63,39.29H30.76V33.44H24.08V39H13.27V29.26H22V23H13.27V14.45H24.08v5.49h6v5.46h3.51l5.24,7.24ZM71.85,37.8Q69.14,40.49,67,40.49a2.85,2.85,0,0,1-2.26-1,3.57,3.57,0,0,1-.88-2.42,2.82,2.82,0,0,1,1.09-2.4,3.92,3.92,0,0,1,2.42-.83,9,9,0,0,1,4.49,1.86Z"/><path class="cls-2" d="M188.58,40.27a19.1,19.1,0,0,1-27.79,0,20.35,20.35,0,0,1-5.7-14.45,20.57,20.57,0,0,1,5.7-14.51,19.22,19.22,0,0,1,27.79,0,20.71,20.71,0,0,1,5.75,14.51A20.39,20.39,0,0,1,188.58,40.27Zm-4.42-24.81a12.66,12.66,0,0,0-9.45-4.25,12.85,12.85,0,0,0-9.5,4.25,15.08,15.08,0,0,0-3.9,10.36,15,15,0,0,0,3.9,10.31,12.69,12.69,0,0,0,19,0,15,15,0,0,0,4-10.31A15.12,15.12,0,0,0,184.16,15.46Z"/><path class="cls-2" d="M221.67,8.37a5,5,0,0,1,2.67.82V3.95a13.44,13.44,0,0,0-3.7-.55c-5.55,0-8.07,3.16-8.07,9.82V20h-8V14c0-3.87.93-5.62,3.65-5.62a5,5,0,0,1,2.67.82V3.95a13.44,13.44,0,0,0-3.7-.55c-5.55,0-8.07,3.16-8.07,9.82V20H195v5.07h4.16V45.23h5.45V25.05h8V45.23H218V25.05h5.7V20H218V14C218,10.11,218.94,8.37,221.67,8.37Z"/><path class="cls-2" d="M228.19,10a3.43,3.43,0,0,1,3.39,3.6,3.48,3.48,0,0,1-3.39,3.65,3.59,3.59,0,0,1-3.44-3.65A3.54,3.54,0,0,1,228.19,10Zm-2.72,10h5.45V45.23h-5.45Z"/><path class="cls-2" d="M247.61,24.18c-4.42,0-7.35,3.27-7.35,8.34,0,5.29,2.88,8.45,7.6,8.45a7.4,7.4,0,0,0,6.27-3.16v6.65a13.05,13.05,0,0,1-6.88,1.8c-7.45,0-12.64-5.56-12.64-13.58s5.34-13.58,13.2-13.58a12,12,0,0,1,6.32,1.58v6.49A8.43,8.43,0,0,0,247.61,24.18Z"/><path class="cls-2" d="M261.28,33.45C261.53,38.2,264.05,41,268,41c3.49,0,5.7-1.47,7.45-5L280,38.74c-2.67,5.07-6.58,7.53-11.92,7.53-7.6,0-12.48-5.34-12.48-13.58,0-7.85,5.09-13.58,12.48-13.58,7.66,0,12.18,4.85,12.18,13.25v1.09ZM268.21,24c-3.54,0-5.7,1.8-6.58,5.56h13C274.22,25.93,272,24,268.21,24Z"/><path class="cls-1" d="M36.45,5.13h1.67V1.69H40.9V11.79H39.17v1.69h5.51V11.79H42.93V1.69H45.7V5.13h1.67V0H36.45ZM57,7.1a6,6,0,0,0-.22-1.86,2,2,0,0,0-.82-1,2.77,2.77,0,0,0-1.53-.39,5.12,5.12,0,0,0-3.15,1.34V0H47.71V1.64h1.7v10.2h-1.7v1.64h5.16V11.84H51.24V6.71A5,5,0,0,1,54,5.49a1.16,1.16,0,0,1,.72.23,1,1,0,0,1,.37.59,9.45,9.45,0,0,1,.07,1.42v5.74h3.44V11.84H57ZM64,12.16a3,3,0,0,1-2.18-.8,3.41,3.41,0,0,1-1-2.1h7.89A5.3,5.3,0,0,0,67.13,5.2,5,5,0,0,0,63.7,3.84a4.85,4.85,0,0,0-3.42,1.4A4.66,4.66,0,0,0,58.8,8.79a4.58,4.58,0,0,0,1.53,3.62A5.38,5.38,0,0,0,64,13.75a6.17,6.17,0,0,0,2.66-.6,4.91,4.91,0,0,0,2.06-1.83l-1.63-.72A3.57,3.57,0,0,1,64,12.16ZM61.86,6.05a2.69,2.69,0,0,1,1.89-.72,2.84,2.84,0,0,1,2,.8,3.36,3.36,0,0,1,1,1.79H60.9A3.08,3.08,0,0,1,61.86,6.05Z"/><path class="cls-2" d="M9.3,61.22a18,18,0,0,0-3.23-1.08,20,20,0,0,1-2.29-.67,2.22,2.22,0,0,1-1-.75,2,2,0,0,1-.38-1.19A1.93,1.93,0,0,1,3.19,56a3.16,3.16,0,0,1,2.12-.63,4.07,4.07,0,0,1,3.57,1.94v1.17h2.06V53.4H8.88v1.12a6.11,6.11,0,0,0-3.75-1.3,5.11,5.11,0,0,0-3.54,1.26A4.3,4.3,0,0,0,.18,57.85a4.23,4.23,0,0,0,.65,2.36,4.3,4.3,0,0,0,1.74,1.53,19.41,19.41,0,0,0,3.35,1.14,8.49,8.49,0,0,1,2.65,1,2,2,0,0,1,.7,1.72,2.53,2.53,0,0,1-.86,2,3.07,3.07,0,0,1-2.11.76q-2.45,0-4-2.74V64.17H.24v6.1H2.34V68.88a6,6,0,0,0,4.14,1.65,5.34,5.34,0,0,0,3.76-1.4,4.62,4.62,0,0,0,1.52-3.55A5,5,0,0,0,11,62.89,4.36,4.36,0,0,0,9.3,61.22Zm16,9v-2h-2V58.59H18.87v2h2.07v6.32a5.47,5.47,0,0,1-3.41,1.52,1.34,1.34,0,0,1-.88-.29,1.17,1.17,0,0,1-.42-.74,13.21,13.21,0,0,1-.07-1.74V58.59h-4v2h1.66V66a9.68,9.68,0,0,0,.25,2.63,2.44,2.44,0,0,0,1,1.33,3.43,3.43,0,0,0,1.94.51,6.49,6.49,0,0,0,3.87-1.53v1.34Zm8-11.86a5.29,5.29,0,0,0-4.16,2V58.59H24.85v2h2V73.47H24.68v2H31.4v-2H29.12V68.82a5.66,5.66,0,0,0,8.11.14A5.83,5.83,0,0,0,39,64.49a6.09,6.09,0,0,0-1.62-4.39A5.41,5.41,0,0,0,33.29,58.4Zm2.23,9a3.63,3.63,0,0,1-2.72,1.1,3.53,3.53,0,0,1-2-.6,3.56,3.56,0,0,1-1.27-1.48,4.42,4.42,0,0,1-.4-1.85,4.06,4.06,0,0,1,1.16-3,3.7,3.7,0,0,1,2.68-1.14,3.62,3.62,0,0,1,2.55,1,3.81,3.81,0,0,1,1.12,2.92A4.14,4.14,0,0,1,35.52,67.42Zm12.27-9a5.29,5.29,0,0,0-4.16,2V58.59H39.35v2h2V73.47H39.18v2H45.9v-2H43.62V68.82a5.66,5.66,0,0,0,8.11.14,5.83,5.83,0,0,0,1.76-4.48,6.09,6.09,0,0,0-1.62-4.39A5.41,5.41,0,0,0,47.79,58.4Zm2.23,9a3.63,3.63,0,0,1-2.72,1.1,3.53,3.53,0,0,1-2-.6A3.57,3.57,0,0,1,44,66.44a4.42,4.42,0,0,1-.4-1.85,4.06,4.06,0,0,1,1.16-3,3.7,3.7,0,0,1,2.68-1.14,3.62,3.62,0,0,1,2.55,1,3.81,3.81,0,0,1,1.12,2.92A4.14,4.14,0,0,1,50,67.42Zm10.6-9.16A6.05,6.05,0,0,0,56.25,60a6.42,6.42,0,0,0,0,8.88,6,6,0,0,0,4.39,1.74A6.1,6.1,0,0,0,65,68.89,6.4,6.4,0,0,0,65,60,6.12,6.12,0,0,0,60.62,58.26Zm2.66,9a3.72,3.72,0,0,1-5.3,0,3.88,3.88,0,0,1-1.08-2.84,4,4,0,0,1,1.05-2.8,3.49,3.49,0,0,1,2.68-1.14,3.56,3.56,0,0,1,2.64,1.11,3.87,3.87,0,0,1,1.09,2.83A3.92,3.92,0,0,1,63.28,67.24ZM74,58.62a3.43,3.43,0,0,0-1.46.89,4.64,4.64,0,0,0-1.08,1.7V58.59h-4.2v2h2.36v7.6H67.28v2h7.21v-2H71.94V65.66a9,9,0,0,1,.42-3.31,2.35,2.35,0,0,1,1.28-1.27,7.39,7.39,0,0,1,2.62-.35h.46V58.4h-.61A8,8,0,0,0,74,58.62Zm7-3.93-2.3,2.1v1.8H77.21v2h1.53v5.79a11.7,11.7,0,0,0,.17,2.41A2,2,0,0,0,79.72,70a2.88,2.88,0,0,0,1.71.46,5.25,5.25,0,0,0,1.77-.31V68.06a3.43,3.43,0,0,1-1.26.24q-.61,0-.76-.32A5.34,5.34,0,0,1,81,66.3V60.63H83.2v-2H81Zm6.84,3.9H83.76v2h1.82v7.6H83.76v2h5.93v-2H87.87ZM86.64,56a1.35,1.35,0,0,0,1-.4,1.33,1.33,0,0,0,.41-1,1.31,1.31,0,0,0-.41-1,1.36,1.36,0,0,0-1-.4,1.32,1.32,0,0,0-1,.41,1.38,1.38,0,0,0,0,1.94A1.33,1.33,0,0,0,86.64,56Zm14.71,6.53a8.53,8.53,0,0,0-.23-2.28,2.47,2.47,0,0,0-1-1.32,3.14,3.14,0,0,0-1.88-.54,7.13,7.13,0,0,0-4,1.59V58.59H89.86v2h2.06v7.6H89.86v2h6.38v-2h-2V62a5.91,5.91,0,0,1,3.45-1.48,1.33,1.33,0,0,1,1,.4,2.59,2.59,0,0,1,.4,1.73v7.64h4.27v-2h-2Zm11.88-2.28a5.61,5.61,0,0,0-8.19-.14,6,6,0,0,0-1.75,4.48,6.1,6.1,0,0,0,1.59,4.27,5.72,5.72,0,0,0,8.35-.18v1.06a7.75,7.75,0,0,1-.12,1.65,2.86,2.86,0,0,1-.54,1,3.22,3.22,0,0,1-1.26.92,4.45,4.45,0,0,1-1.84.38,5.3,5.3,0,0,1-3.32-1.18l-1.5,1.67a7.41,7.41,0,0,0,4.62,1.56,7.75,7.75,0,0,0,3.11-.6,5.24,5.24,0,0,0,2.09-1.49,4.32,4.32,0,0,0,.88-1.74,13.68,13.68,0,0,0,.18-2.61v-8.7h2.11v-2h-4.41Zm-1.1,7.19a3.72,3.72,0,0,1-2.71,1.13,3.44,3.44,0,0,1-2.65-1.12,4.1,4.1,0,0,1-1-2.9,3.85,3.85,0,0,1,1.13-2.91,3.73,3.73,0,0,1,5.27,0,3.82,3.82,0,0,1,1.14,2.89A3.91,3.91,0,0,1,112.12,67.44ZM122.8,55.58H125V68.17H122.8v2.1h14V65.11h-2.08v3.05h-7.19V62.68h6.26v-2.1h-6.26v-5h7.19v3h2.08V53.48h-14Zm21.56,5h1.19l-2,2.29-2.11-2.29h1.46v-2h-5.5v2H139l3.36,3.64-3.52,4h-1.72v2h5.68v-2h-1.51l2.31-2.62L146,68.23h-1.62v2h5.53v-2h-1.48l-3.66-4L148,60.63h1.93v-2h-5.53Zm36.38,1.81a7.63,7.63,0,0,0-.25-2.26,2.45,2.45,0,0,0-1-1.27,3.25,3.25,0,0,0-1.87-.5,7,7,0,0,0-4.26,1.82,2.76,2.76,0,0,0-2.77-1.82,6.59,6.59,0,0,0-4.07,1.65V58.59h-4.25v2h1.95v7.6h-4V62.82a9.4,9.4,0,0,0-.16-2.08,3,3,0,0,0-.64-1.21,3.35,3.35,0,0,0-1.43-.92,6.58,6.58,0,0,0-2.28-.36A5.26,5.26,0,0,0,150.61,61l2.2.58a2.66,2.66,0,0,1,2.51-1.38,3.06,3.06,0,0,1,1.63.39,1.76,1.76,0,0,1,.79.87,4.34,4.34,0,0,1,.17,1.38V64a5.8,5.8,0,0,0-3.18-1,4.48,4.48,0,0,0-3,1.07,3.41,3.41,0,0,0-1.25,2.7,3.38,3.38,0,0,0,1.18,2.66,4.07,4.07,0,0,0,2.78,1,5.24,5.24,0,0,0,3.73-1.62v1.42h10.45v-2h-2.06V62a6.28,6.28,0,0,1,3.36-1.51A1.24,1.24,0,0,1,171,61a3.16,3.16,0,0,1,.33,1.66v7.64h4.31v-2h-2V62A5.63,5.63,0,0,1,177,60.46a1.46,1.46,0,0,1,.89.27,1.14,1.14,0,0,1,.46.69,7.65,7.65,0,0,1,.09,1.43v7.42h4.35v-2h-2Zm-22.83,4.85a4.57,4.57,0,0,1-3.16,1.4,2.08,2.08,0,0,1-1.53-.56,1.86,1.86,0,0,1-.56-1.38,1.81,1.81,0,0,1,.64-1.44,2.36,2.36,0,0,1,1.6-.56,4.88,4.88,0,0,1,3,1.16Zm32.65-3.48a12.12,12.12,0,0,0-2.58-.62,10.76,10.76,0,0,1-2.32-.52.91.91,0,0,1-.54-.91,1.2,1.2,0,0,1,.59-1,2.64,2.64,0,0,1,1.5-.39,3,3,0,0,1,2.71,1.44v.71h2V58.59h-2v.5a5.69,5.69,0,0,0-2.86-.68,4.34,4.34,0,0,0-3,1A3.12,3.12,0,0,0,183,61.83a3,3,0,0,0,1,2.36,7,7,0,0,0,3.46,1.32,7.5,7.5,0,0,1,2.19.58,1,1,0,0,1,.55,1,1.19,1.19,0,0,1-.67,1.07,3.53,3.53,0,0,1-1.78.39A3.2,3.2,0,0,1,185.9,68a1.9,1.9,0,0,1-.89-1.35v-.39H183v4H185v-.66a5.14,5.14,0,0,0,3.06.85,5.2,5.2,0,0,0,3.25-1,3.09,3.09,0,0,0,1.25-2.59A3.29,3.29,0,0,0,192,65,3.23,3.23,0,0,0,190.56,63.8Zm16.83-10.59a8.33,8.33,0,0,0-6.25,2.46,8.43,8.43,0,0,0-2.4,6.12,9.65,9.65,0,0,0,1,4.33,7.46,7.46,0,0,0,3.08,3.25,9,9,0,0,0,4.5,1.17,8.63,8.63,0,0,0,6.33-2.46,9,9,0,0,0,0-12.4A8.54,8.54,0,0,0,207.38,53.21Zm4.31,13.19a5.47,5.47,0,0,1-4.3,1.91,5.37,5.37,0,0,1-4.26-1.87,6.82,6.82,0,0,1-1.62-4.63,6.55,6.55,0,0,1,1.63-4.54,5.4,5.4,0,0,1,4.21-1.82,5.61,5.61,0,0,1,4.3,1.85,6.43,6.43,0,0,1,1.71,4.53A6.69,6.69,0,0,1,211.69,66.4Zm9.38-5.79h2v-2h-2V56.9a3.78,3.78,0,0,1,.19-1.52A.74.74,0,0,1,222,55q.76,0,.88,1.12l2-.31a2.83,2.83,0,0,0-3.09-2.69,3.11,3.11,0,0,0-2.14.81,3.85,3.85,0,0,0-.91,2.94v1.69h-1.71v2h1.71v7.62h-1.71v2h6.23v-2h-2.23Zm6.49,0h2v-2h-2V56.9a3.78,3.78,0,0,1,.19-1.52.74.74,0,0,1,.71-.36q.76,0,.88,1.12l2-.31a2.83,2.83,0,0,0-3.09-2.69,3.11,3.11,0,0,0-2.14.81,3.85,3.85,0,0,0-.91,2.94v1.69h-1.71v2h1.71v7.62h-1.71v2h6.23v-2h-2.23Zm5.5-4.61a1.35,1.35,0,0,0,1-.4,1.33,1.33,0,0,0,.41-1,1.31,1.31,0,0,0-.41-1,1.36,1.36,0,0,0-1-.4,1.32,1.32,0,0,0-1,.41,1.38,1.38,0,0,0,0,1.94A1.33,1.33,0,0,0,233.06,56Zm1.23,2.58h-4.12v2H232v7.6h-1.82v2h5.93v-2H234.3Zm8.27,9.93a3.09,3.09,0,0,1-2.66-1.26,4.81,4.81,0,0,1-.92-2.91,4.16,4.16,0,0,1,1-2.87,3.21,3.21,0,0,1,2.52-1.09,3.25,3.25,0,0,1,2,.68,2.76,2.76,0,0,1,1,1.94h2.06V58.59h-2.06v.82a4.9,4.9,0,0,0-3.29-1.15,5.56,5.56,0,0,0-4,1.72,5.87,5.87,0,0,0-1.74,4.36,6.58,6.58,0,0,0,1.6,4.37,5.43,5.43,0,0,0,4.38,1.9A5.57,5.57,0,0,0,248,67.12l-1.9-.89A3.65,3.65,0,0,1,242.57,68.52ZM258.84,60a6.31,6.31,0,0,0-4.28-1.7A6.07,6.07,0,0,0,250.3,60a5.8,5.8,0,0,0-1.86,4.43,5.69,5.69,0,0,0,1.91,4.51,6.73,6.73,0,0,0,4.59,1.67,7.73,7.73,0,0,0,3.32-.74,6.13,6.13,0,0,0,2.58-2.28l-2-.89A4.47,4.47,0,0,1,255,68.63a3.81,3.81,0,0,1-2.72-1A4.25,4.25,0,0,1,251,65h9.85A6.59,6.59,0,0,0,258.84,60Zm-7.78,3.39a3.83,3.83,0,0,1,1.2-2.32,3.37,3.37,0,0,1,2.36-.9,3.55,3.55,0,0,1,2.55,1,4.18,4.18,0,0,1,1.28,2.23Zm17-4.72a3.43,3.43,0,0,0-1.46.89,4.63,4.63,0,0,0-1.08,1.7V58.59h-4.2v2h2.36v7.6h-2.36v2h7.21v-2H266V65.66a9,9,0,0,1,.42-3.31,2.35,2.35,0,0,1,1.28-1.27,7.4,7.4,0,0,1,2.62-.35h.46V58.4h-.61A8,8,0,0,0,268,58.62ZM280.17,65a3.23,3.23,0,0,0-1.45-1.18,12.12,12.12,0,0,0-2.58-.62,10.76,10.76,0,0,1-2.32-.52.91.91,0,0,1-.54-.91,1.2,1.2,0,0,1,.59-1,2.64,2.64,0,0,1,1.5-.39,3,3,0,0,1,2.71,1.44v.71h2V58.59h-2v.5a5.69,5.69,0,0,0-2.86-.68,4.34,4.34,0,0,0-3,1,3.12,3.12,0,0,0-1.13,2.45,3,3,0,0,0,1,2.36,7,7,0,0,0,3.46,1.32,7.5,7.5,0,0,1,2.19.58,1,1,0,0,1,.55,1,1.19,1.19,0,0,1-.67,1.07,3.53,3.53,0,0,1-1.78.39,3.2,3.2,0,0,1-1.85-.53,1.9,1.9,0,0,1-.89-1.35v-.39h-2.06v4h2.06v-.66a5.14,5.14,0,0,0,3.06.85,5.2,5.2,0,0,0,3.25-1,3.09,3.09,0,0,0,1.25-2.59A3.29,3.29,0,0,0,280.17,65Z"/></svg>