<svg id="Layer_1" data-name="Layer 1" xmlns="http://www.w3.org/2000/svg" viewBox="0 0 552.12 149.01"><defs><style>.cls-1{fill:#fff;}.cls-2{fill:#f04e23;}</style></defs><title>main__logo</title><path class="cls-1" d="M296.84,64.21a14.58,14.58,0,0,0-7-5.37,85.44,85.44,0,0,0-13.22-3.25q-5.58-1-6.93-1.81a2.41,2.41,0,0,1-1.36-2.23q0-3.87,6.61-3.88,9,0,10.46,5.29h10.9V38.26h-10.9V40a29,29,0,0,0-12.09-2.54q-8,0-12.83,4.32a13.66,13.66,0,0,0-4.83,10.6,13,13,0,0,0,5.13,10.76q5.13,4.06,16.72,6.06,5.62,1,7.55,2.1A3.41,3.41,0,0,1,287,74.39a4.12,4.12,0,0,1-2.1,3.53A10.52,10.52,0,0,1,279,79.32a12.21,12.21,0,0,1-7.3-2.12,7,7,0,0,1-3.11-5.68H257.45v5.76h-7.53V58q0-8-1.38-11.89a11.9,11.9,0,0,0-5.11-6.26,18.05,18.05,0,0,0-9.69-2.33q-10.06,0-19.29,6.91-5.08-6.91-14.31-6.91a28.86,28.86,0,0,0-15.49,4.92V38.26H161.51V49.94h7.89V77.27H156.55V58.79a39.86,39.86,0,0,0-.91-10.13,14.47,14.47,0,0,0-9.89-10A33.9,33.9,0,0,0,134.3,37q-17.81,0-23.14,12l12.28,2.36a11.5,11.5,0,0,1,8.78-4,8.9,8.9,0,0,1,6.61,2.49,8.66,8.66,0,0,1,2.47,6.36v3.09a29.42,29.42,0,0,0-11-2.57q-8.58,0-14,4.92a15.81,15.81,0,0,0-5.43,12.2,17.61,17.61,0,0,0,.32,3.4h-6L93.91,62.14l9.67-12.2H110V38.26H95.59L86.17,52.14,77.58,38.26H60.48V16.11H0V28.42H8.24V76.65H0V89H74L84,74.71,93.27,89h18.3V78.81A13.71,13.71,0,0,0,116,85.39a18.54,18.54,0,0,0,12.26,4.29,21,21,0,0,0,13-4.74v4h51.24V77.27h-7.89V54.76q6.26-3.46,11.1-3.46,6.22,0,6.22,8.43V89h23.14V77.27h-7.89V54.76q5.92-3.46,11-3.46,6.46,0,6.46,8V89H268.6V86.41q3.16,3.69,11.69,3.69,9.18,0,14.18-4.74a16,16,0,0,0,5-12.18A15.19,15.19,0,0,0,296.84,64.21ZM66.14,77.27H60.48V65.75H47.36V76.65H26.1V57.53H43.27V45.23H26.1V28.42H47.36V39.21H59.23V49.94h6.91L76.45,64.18Zm75.17-2.93q-5.33,5.29-9.57,5.29a5.61,5.61,0,0,1-4.44-2,7,7,0,0,1-1.73-4.77,5.55,5.55,0,0,1,2.15-4.71,7.71,7.71,0,0,1,4.76-1.62q3.3,0,8.83,3.67Z"/><path class="cls-2" d="M370.86,79.19a37.56,37.56,0,0,1-54.66,0A40,40,0,0,1,305,50.77,40.45,40.45,0,0,1,316.2,22.24a37.79,37.79,0,0,1,54.66,0,40.73,40.73,0,0,1,11.32,28.53A40.1,40.1,0,0,1,370.86,79.19Zm-8.69-48.8A24.9,24.9,0,0,0,343.58,22a25.27,25.27,0,0,0-18.69,8.37,29.66,29.66,0,0,0-7.68,20.38A29.39,29.39,0,0,0,324.89,71a25,25,0,0,0,37.28,0A29.48,29.48,0,0,0,370,50.77,29.74,29.74,0,0,0,362.17,30.4Z"/><path class="cls-2" d="M435.93,16.45a9.73,9.73,0,0,1,5.25,1.61V7.77a26.42,26.42,0,0,0-7.27-1.07C423,6.69,418,12.91,418,26V39.3H402.39V27.5c0-7.61,1.82-11,7.17-11a9.73,9.73,0,0,1,5.25,1.61V7.77a26.42,26.42,0,0,0-7.27-1.07c-10.91,0-15.86,6.22-15.86,19.3V39.3h-8.18v10h8.18V89h10.71V49.27H418V89h10.71V49.27H440v-10H428.76V27.5C428.76,19.89,430.58,16.45,435.93,16.45Z"/><path class="cls-2" d="M448.76,19.69a6.74,6.74,0,0,1,6.67,7.08c0,4.08-2.93,7.19-6.67,7.19A7.06,7.06,0,0,1,442,26.76,7,7,0,0,1,448.76,19.69ZM443.41,39.3h10.71V89H443.41Z"/><path class="cls-2" d="M487,47.55C478.26,47.55,472.5,54,472.5,64c0,10.4,5.66,16.62,15,16.62a14.55,14.55,0,0,0,12.33-6.22V87.45A25.67,25.67,0,0,1,486.24,91c-14.65,0-24.85-10.94-24.85-26.7,0-16,10.51-26.7,26-26.7a23.69,23.69,0,0,1,12.43,3.11V53.45A16.57,16.57,0,0,0,487,47.55Z"/><path class="cls-2" d="M513.83,65.79c.51,9.33,5.46,14.8,13.24,14.8,6.87,0,11.21-2.9,14.65-9.76l9,5.36c-5.25,10-12.93,14.8-23.44,14.8-15,0-24.55-10.51-24.55-26.7,0-15.44,10-26.7,24.55-26.7,15.05,0,23.95,9.54,23.95,26.06v2.15Zm13.64-18.55c-7,0-11.22,3.54-12.93,10.94H540.1C539.29,51,534.84,47.23,527.47,47.23Z"/><path class="cls-1" d="M71.68,10.08H75V3.32h5.47V23.19H77v3.32H87.88V23.19H84.43V3.32h5.45v6.76h3.28V0H71.68ZM112,14a11.86,11.86,0,0,0-.43-3.65,3.83,3.83,0,0,0-1.61-2,5.46,5.46,0,0,0-3-.76,10.06,10.06,0,0,0-6.19,2.63V0h-7V3.22h3.33V23.29H93.82v3.22H104V23.29h-3.2V13.19q3.24-2.38,5.34-2.38a2.28,2.28,0,0,1,1.42.46,1.86,1.86,0,0,1,.73,1.16,18.59,18.59,0,0,1,.13,2.8V26.51h6.77V23.29H112Zm13.92,9.95a6,6,0,0,1-4.29-1.58,6.71,6.71,0,0,1-2-4.13h15.51q-.11-5.3-3.14-8a9.91,9.91,0,0,0-6.74-2.68,9.54,9.54,0,0,0-6.72,2.74,9.17,9.17,0,0,0-2.92,7,9,9,0,0,0,3,7.12A10.57,10.57,0,0,0,125.86,27a12.14,12.14,0,0,0,5.22-1.17,9.65,9.65,0,0,0,4.06-3.59l-3.2-1.41A7,7,0,0,1,125.94,23.92Zm-4.29-12a5.3,5.3,0,0,1,3.72-1.42,5.59,5.59,0,0,1,4,1.57,6.6,6.6,0,0,1,2,3.52H119.77A6.06,6.06,0,0,1,121.65,11.9Z"/><path class="cls-2" d="M18.3,120.39a35.3,35.3,0,0,0-6.36-2.12,39.35,39.35,0,0,1-4.5-1.33,4.36,4.36,0,0,1-1.88-1.48,3.85,3.85,0,0,1-.74-2.34,3.8,3.8,0,0,1,1.45-3,6.22,6.22,0,0,1,4.17-1.25,8,8,0,0,1,7,3.82V115h4V105h-4v2.21a12,12,0,0,0-7.38-2.56,10.06,10.06,0,0,0-7,2.48,8.46,8.46,0,0,0-2.77,6.63,8.32,8.32,0,0,0,1.27,4.64,8.45,8.45,0,0,0,3.42,3,38.17,38.17,0,0,0,6.59,2.24,16.7,16.7,0,0,1,5.21,2.05,4,4,0,0,1,1.38,3.38A5,5,0,0,1,16.53,133a6,6,0,0,1-4.14,1.5q-4.81,0-7.78-5.39V126.2H.47v12H4.61v-2.73a11.87,11.87,0,0,0,8.14,3.25A10.5,10.5,0,0,0,20.14,136a9.08,9.08,0,0,0,3-7,9.84,9.84,0,0,0-1.43-5.29A8.58,8.58,0,0,0,18.3,120.39Zm31.38,17.8v-4h-4v-19H37.1v4h4.07v12.44q-3.57,3-6.71,3a2.64,2.64,0,0,1-1.74-.57,2.3,2.3,0,0,1-.83-1.45,26,26,0,0,1-.14-3.42v-14H24v4h3.26v10.56a19,19,0,0,0,.5,5.16,4.81,4.81,0,0,0,2,2.61,6.74,6.74,0,0,0,3.82,1,12.77,12.77,0,0,0,7.62-3v2.63Zm15.79-23.33a10.4,10.4,0,0,0-8.19,4v-3.61h-8.4v4h3.88v25.25H48.53v4H61.75v-4H57.27v-9.14a11.12,11.12,0,0,0,15.95.29,11.47,11.47,0,0,0,3.45-8.81,12,12,0,0,0-3.18-8.64A10.64,10.64,0,0,0,65.46,114.86Zm4.39,17.73a7.15,7.15,0,0,1-5.34,2.16,6.94,6.94,0,0,1-4-1.18,7,7,0,0,1-2.5-2.91A8.7,8.7,0,0,1,57.2,127a8,8,0,0,1,2.27-5.95,7.28,7.28,0,0,1,5.27-2.24,7.13,7.13,0,0,1,5,2.06,7.49,7.49,0,0,1,2.2,5.74A8.13,8.13,0,0,1,69.85,132.59ZM94,114.86a10.4,10.4,0,0,0-8.19,4v-3.61h-8.4v4h3.88v25.25H77.05v4H90.27v-4H85.79v-9.14a11.12,11.12,0,0,0,15.95.29,11.47,11.47,0,0,0,3.45-8.81,12,12,0,0,0-3.18-8.64A10.64,10.64,0,0,0,94,114.86Zm4.39,17.73A7.15,7.15,0,0,1,93,134.75a6.94,6.94,0,0,1-4-1.18,7,7,0,0,1-2.5-2.91,8.7,8.7,0,0,1-.79-3.63A8,8,0,0,1,88,121.09a7.28,7.28,0,0,1,5.27-2.24,7.13,7.13,0,0,1,5,2.06,7.49,7.49,0,0,1,2.2,5.74A8.13,8.13,0,0,1,98.37,132.59Zm20.84-18a11.9,11.9,0,0,0-8.59,3.41,12.62,12.62,0,0,0,0,17.46,11.85,11.85,0,0,0,8.63,3.42,12,12,0,0,0,8.56-3.37,12.59,12.59,0,0,0,0-17.55A12,12,0,0,0,119.22,114.57Zm5.23,17.67a7.31,7.31,0,0,1-10.43,0,7.63,7.63,0,0,1-2.13-5.58,7.81,7.81,0,0,1,2.07-5.52,6.86,6.86,0,0,1,5.26-2.23,7,7,0,0,1,5.19,2.19,7.62,7.62,0,0,1,2.14,5.56A7.7,7.7,0,0,1,124.44,132.24Zm21.12-17a6.74,6.74,0,0,0-2.87,1.76,9.12,9.12,0,0,0-2.12,3.35v-5.17h-8.26v4H137v15h-4.64v4H146.5v-4h-5v-5.06q0-4.7.82-6.52a4.62,4.62,0,0,1,2.52-2.5,14.54,14.54,0,0,1,5.15-.69h.9v-4.56h-1.19A15.8,15.8,0,0,0,145.56,115.28Zm13.8-7.74-4.52,4.13v3.54h-3v4h3v11.39a23,23,0,0,0,.33,4.75,3.89,3.89,0,0,0,1.62,2.29,5.67,5.67,0,0,0,3.36.91,10.33,10.33,0,0,0,3.48-.62v-4.11a6.74,6.74,0,0,1-2.48.47q-1.19,0-1.49-.63a10.5,10.5,0,0,1-.3-3.31V119.22h4.26v-4h-4.26Zm13.45,7.67h-8.09v4h3.57v15h-3.57v4h11.67v-4h-3.57Zm-2.43-5.08a2.66,2.66,0,0,0,1.93-.79,2.61,2.61,0,0,0,.81-1.93,2.57,2.57,0,0,0-.81-1.92,2.68,2.68,0,0,0-1.93-.78,2.61,2.61,0,0,0-2,.81,2.72,2.72,0,0,0,0,3.82A2.62,2.62,0,0,0,170.38,110.13ZM199.31,123a16.78,16.78,0,0,0-.45-4.47,4.86,4.86,0,0,0-1.92-2.59,6.17,6.17,0,0,0-3.7-1.06q-3.6,0-8,3.13v-2.78h-8.57v4h4v15h-4v4h12.55v-4h-4v-12.3q3.79-2.92,6.78-2.92a2.61,2.61,0,0,1,1.93.8q.79.8.79,3.41v15h8.4v-4h-3.88Zm23.36-4.49a11,11,0,0,0-16.1-.27,11.77,11.77,0,0,0-3.44,8.82,12,12,0,0,0,3.12,8.4,11.24,11.24,0,0,0,16.43-.36v2.09a15.23,15.23,0,0,1-.24,3.24,5.63,5.63,0,0,1-1.06,2,6.33,6.33,0,0,1-2.49,1.82,8.75,8.75,0,0,1-3.62.75,10.43,10.43,0,0,1-6.52-2.33l-3,3.28a14.56,14.56,0,0,0,9.09,3.06,15.24,15.24,0,0,0,6.12-1.19,10.3,10.3,0,0,0,4.11-2.93,8.49,8.49,0,0,0,1.73-3.42,26.9,26.9,0,0,0,.36-5.14V119.22h4.14v-4h-8.67Zm-2.17,14.13a7.31,7.31,0,0,1-5.33,2.22,6.76,6.76,0,0,1-5.2-2.21,8.07,8.07,0,0,1-2-5.7,7.57,7.57,0,0,1,2.21-5.73,7.34,7.34,0,0,1,10.36,0,7.52,7.52,0,0,1,2.24,5.68A7.69,7.69,0,0,1,220.5,132.62Zm21-23.32h4.28v24.76H241.5v4.13H269V128.05h-4.09v6H250.78v-10.8h12.31v-4.13H250.78V109.3h14.14v5.82H269v-9.95H241.5Zm42.4,9.92h2.34l-4,4.5-4.14-4.5H281v-4H270.16v4h3.11l6.61,7.16L273,134.18h-3.39v4h11.16v-4h-3l4.55-5.15,4.76,5.15H283.9v4h10.88v-4h-2.92l-7.19-7.81,6.31-7.14h3.8v-4H283.9Zm71.54,3.56a15,15,0,0,0-.5-4.45,4.82,4.82,0,0,0-1.94-2.49,6.38,6.38,0,0,0-3.68-1q-3.88,0-8.38,3.58a5.44,5.44,0,0,0-5.44-3.58q-3.92,0-8,3.25v-2.9h-8.36v4H323v15h-8V123.55a18.48,18.48,0,0,0-.32-4.08,5.91,5.91,0,0,0-1.25-2.39,6.58,6.58,0,0,0-2.82-1.8,12.94,12.94,0,0,0-4.49-.7q-7.07,0-10,5.36l4.33,1.14a5.23,5.23,0,0,1,4.93-2.71,6,6,0,0,1,3.2.76,3.47,3.47,0,0,1,1.56,1.71,8.54,8.54,0,0,1,.33,2.71v2.28a11.41,11.41,0,0,0-6.26-1.95,8.82,8.82,0,0,0-5.94,2.11,6.71,6.71,0,0,0-2.46,5.32,6.64,6.64,0,0,0,2.32,5.22,8,8,0,0,0,5.46,2,10.3,10.3,0,0,0,7.33-3.18v2.8h20.55v-4h-4V121.86q4-3,6.6-3a2.44,2.44,0,0,1,2.22,1,6.21,6.21,0,0,1,.65,3.26v15h8.47v-4h-4V121.86q3.69-3,6.59-3a2.87,2.87,0,0,1,1.75.53,2.23,2.23,0,0,1,.9,1.35,15,15,0,0,1,.18,2.81v14.6h8.55v-4h-4Zm-44.9,9.54a9,9,0,0,1-6.21,2.75,4.1,4.1,0,0,1-3-1.09,3.65,3.65,0,0,1-1.11-2.71,3.56,3.56,0,0,1,1.26-2.82,4.64,4.64,0,0,1,3.14-1.09,9.61,9.61,0,0,1,5.93,2.28Zm64.21-6.85a23.84,23.84,0,0,0-5.07-1.22,21.16,21.16,0,0,1-4.56-1,1.79,1.79,0,0,1-1.06-1.79,2.36,2.36,0,0,1,1.15-2.05,5.19,5.19,0,0,1,2.94-.77,6,6,0,0,1,5.33,2.82v1.4h4v-7.62h-4v1a11.2,11.2,0,0,0-5.62-1.34,8.54,8.54,0,0,0-5.83,1.94,6.13,6.13,0,0,0-2.21,4.81,5.9,5.9,0,0,0,2,4.64q2,1.79,6.8,2.6a14.75,14.75,0,0,1,4.3,1.14A2.06,2.06,0,0,1,374,131.9a2.34,2.34,0,0,1-1.31,2.11,7,7,0,0,1-3.5.76,6.3,6.3,0,0,1-3.63-1,3.74,3.74,0,0,1-1.75-2.66v-.76h-4v7.88h4V136.9a10.1,10.1,0,0,0,6,1.67,10.22,10.22,0,0,0,6.39-1.89,6.08,6.08,0,0,0,2.46-5.09,6.47,6.47,0,0,0-1.13-3.79A6.35,6.35,0,0,0,374.75,125.48Zm33.09-20.82a16.38,16.38,0,0,0-12.28,4.84,16.57,16.57,0,0,0-4.71,12,19,19,0,0,0,2,8.51,14.68,14.68,0,0,0,6.06,6.38,17.61,17.61,0,0,0,8.84,2.29,17,17,0,0,0,12.44-4.83,17.75,17.75,0,0,0,.08-24.39A16.79,16.79,0,0,0,407.84,104.65Zm8.47,25.93a10.75,10.75,0,0,1-8.45,3.76,10.55,10.55,0,0,1-8.38-3.68,13.42,13.42,0,0,1-3.19-9.11,12.88,12.88,0,0,1,3.21-8.92,10.62,10.62,0,0,1,8.28-3.58,11,11,0,0,1,8.46,3.64,12.65,12.65,0,0,1,3.37,8.91A13.15,13.15,0,0,1,416.31,130.58Zm18.45-11.38h4v-4h-4V111.9a7.43,7.43,0,0,1,.38-3,1.46,1.46,0,0,1,1.41-.7q1.5,0,1.74,2.21l4-.62q-.83-5.29-6.07-5.29a6.11,6.11,0,0,0-4.21,1.6q-1.78,1.6-1.79,5.79v3.32h-3.36v4h3.36v15h-3.36v4h12.26v-4h-4.38Zm12.76,0h4v-4h-4V111.9a7.43,7.43,0,0,1,.38-3,1.46,1.46,0,0,1,1.41-.7q1.5,0,1.74,2.21l4-.62q-.83-5.29-6.07-5.29a6.11,6.11,0,0,0-4.21,1.6q-1.78,1.6-1.79,5.79v3.32h-3.36v4H443v15h-3.36v4h12.26v-4h-4.38Zm10.81-9.07a2.66,2.66,0,0,0,1.93-.79,2.61,2.61,0,0,0,.81-1.93,2.57,2.57,0,0,0-.81-1.92,2.68,2.68,0,0,0-1.93-.78,2.6,2.6,0,0,0-2,.81,2.72,2.72,0,0,0,0,3.82A2.62,2.62,0,0,0,458.34,110.13Zm2.43,5.08h-8.09v4h3.57v15h-3.57v4h11.66v-4h-3.57ZM477,134.75a6.08,6.08,0,0,1-5.24-2.48,9.47,9.47,0,0,1-1.81-5.73,8.18,8.18,0,0,1,1.9-5.64,6.31,6.31,0,0,1,5-2.15,6.39,6.39,0,0,1,4,1.33,5.44,5.44,0,0,1,2,3.82h4v-8.69h-4v1.61a9.63,9.63,0,0,0-6.48-2.26,10.93,10.93,0,0,0-7.9,3.38,11.54,11.54,0,0,0-3.43,8.58,12.94,12.94,0,0,0,3.14,8.59,10.67,10.67,0,0,0,8.62,3.73q7.74,0,10.83-6.86l-3.74-1.76A7.18,7.18,0,0,1,477,134.75Zm32-16.84a12.4,12.4,0,0,0-8.42-3.33,11.93,11.93,0,0,0-8.39,3.42,11.41,11.41,0,0,0-3.65,8.71,11.19,11.19,0,0,0,3.75,8.87,13.23,13.23,0,0,0,9,3.29,15.21,15.21,0,0,0,6.52-1.46,12,12,0,0,0,5.07-4.47l-4-1.76a8.79,8.79,0,0,1-7.5,3.8,7.5,7.5,0,0,1-5.36-2,8.35,8.35,0,0,1-2.52-5.15H513Q512.81,121.24,509,117.91Zm-15.3,6.66A7.53,7.53,0,0,1,496.1,120a6.63,6.63,0,0,1,4.64-1.77,7,7,0,0,1,5,2,8.21,8.21,0,0,1,2.52,4.38Zm33.39-9.28a6.75,6.75,0,0,0-2.87,1.76,9.1,9.1,0,0,0-2.12,3.35v-5.17h-8.26v4h4.64v15h-4.64v4h14.19v-4h-5v-5.06q0-4.7.82-6.52a4.62,4.62,0,0,1,2.52-2.5,14.55,14.55,0,0,1,5.15-.69h.9v-4.56h-1.19A15.8,15.8,0,0,0,527.13,115.28ZM551,127.8a6.35,6.35,0,0,0-2.84-2.33,23.84,23.84,0,0,0-5.07-1.22,21.16,21.16,0,0,1-4.56-1,1.79,1.79,0,0,1-1.06-1.79,2.36,2.36,0,0,1,1.15-2.05,5.19,5.19,0,0,1,2.94-.77,6,6,0,0,1,5.33,2.82v1.4h4v-7.62h-4v1a11.19,11.19,0,0,0-5.62-1.34,8.54,8.54,0,0,0-5.83,1.94,6.13,6.13,0,0,0-2.21,4.81,5.9,5.9,0,0,0,2,4.64q2,1.79,6.8,2.6a14.76,14.76,0,0,1,4.3,1.14,2.06,2.06,0,0,1,1.08,1.92,2.34,2.34,0,0,1-1.31,2.11,7,7,0,0,1-3.5.76,6.3,6.3,0,0,1-3.63-1,3.74,3.74,0,0,1-1.75-2.66v-.76h-4v7.88h4V136.9a10.1,10.1,0,0,0,6,1.67,10.22,10.22,0,0,0,6.39-1.89,6.08,6.08,0,0,0,2.46-5.09A6.47,6.47,0,0,0,551,127.8Z"/></svg>