<svg id="Layer_1" data-name="Layer 1" xmlns="http://www.w3.org/2000/svg" viewBox="0 0 91.38 37.06"><defs><style>.cls-1{fill:#2b2b2b;}</style></defs><title>ocr__logo</title><path class="cls-1" d="M16.21,0H16C8.66,0,0,4.63,0,12.61S8.66,25.22,16,25.22h.17c7.37,0,16-4.54,16-12.61S23.58,0,16.21,0Zm0,21.47h-.12c-5.2,0-9.41-3.2-9.41-8.89s4.21-8.89,9.41-8.89h.12c5.2,0,9.41,3.26,9.41,8.89S21.38,21.47,16.18,21.47Z"/><path class="cls-1" d="M78.66,14h2.8a6.61,6.61,0,0,0,6.61-6.61V7.13C88.07,3.4,85.28.37,77.61.37H64.47V24.61h5.78V14.52h2.13l11,10.09h8Zm-8.4-2.71V3.69h8.43A3.81,3.81,0,0,1,82.49,7.5h0a3.81,3.81,0,0,1-3.81,3.81Z"/><path class="cls-1" d="M62,22.55l-2.81-3.08a12.31,12.31,0,0,1-7,2.12,19.32,19.32,0,0,1-3.44-.29,10.67,10.67,0,0,1-1.11-.25c-3.87-1-6.38-3.66-6.38-8.48,0-5.12,2.82-7.66,6.83-8.59l.09,0,.24-.05.19,0a19.09,19.09,0,0,1,3.58-.31,12.34,12.34,0,0,1,6.91,2l2.77-3h0A19.62,19.62,0,0,0,52.26,0H50.73A19.53,19.53,0,0,0,40,2.85l-.12.08a11.11,11.11,0,0,0-4.8,6.68l0,.17L35,10l0,.13,0,.17,0,.17v0c0,.17-.05.33-.08.5s0,.24,0,.35,0,.2,0,.3,0,.23,0,.34,0,.18,0,.27,0,.06,0,.08,0,.19,0,.29,0,.2,0,.3v0c0,.07,0,.15,0,.22v.11c.39,7.65,7.45,11.94,16,11.94h1.53a19.67,19.67,0,0,0,9.8-2.65Z"/><path class="cls-1" d="M7.55,33A2.33,2.33,0,0,1,5.24,35.6,2.28,2.28,0,0,1,3,33.07a2.36,2.36,0,0,1,2.31-2.61A2.27,2.27,0,0,1,7.55,33Zm-3.86.08c0,1.06.58,2,1.59,2S6.87,34.14,6.87,33s-.52-2-1.59-2S3.69,32,3.69,33.06Z"/><path class="cls-1" d="M8.76,31.94l.51.77c.13.2.24.38.36.58h0c.12-.21.24-.4.35-.59l.5-.76h.7L10,33.67l1.25,1.85h-.74l-.52-.8c-.14-.21-.26-.41-.38-.62h0c-.12.21-.24.41-.38.62l-.52.8H8l1.27-1.82L8,31.94Z"/><path class="cls-1" d="M12.06,35.52V32.44h-.5v-.49h.5v-.17a1.68,1.68,0,0,1,.41-1.25,1.24,1.24,0,0,1,.87-.33,1.51,1.51,0,0,1,.55.1l-.09.5a1,1,0,0,0-.41-.08c-.55,0-.69.49-.69,1v.19h.86v.49h-.86v3.08Z"/><path class="cls-1" d="M17.42,33.7a1.75,1.75,0,0,1-1.78,1.9,1.7,1.7,0,0,1-1.71-1.84,1.74,1.74,0,0,1,1.77-1.9A1.69,1.69,0,0,1,17.42,33.7Zm-2.83,0c0,.78.45,1.37,1.09,1.37s1.09-.58,1.09-1.39c0-.61-.3-1.37-1.07-1.37S14.58,33.06,14.58,33.74Z"/><path class="cls-1" d="M18.36,33.06c0-.42,0-.78,0-1.11h.57l0,.7h0a1.07,1.07,0,0,1,1-.78l.18,0v.61l-.22,0a.91.91,0,0,0-.87.83,1.83,1.83,0,0,0,0,.3v1.9h-.64Z"/><path class="cls-1" d="M23.91,30.28V34.6c0,.32,0,.68,0,.92h-.58l0-.62h0a1.32,1.32,0,0,1-1.22.7,1.63,1.63,0,0,1-1.53-1.82,1.71,1.71,0,0,1,1.6-1.92,1.19,1.19,0,0,1,1.08.55h0V30.28Zm-.65,3.12a1.15,1.15,0,0,0,0-.27,1,1,0,0,0-.94-.75c-.67,0-1.07.59-1.07,1.38s.35,1.32,1.06,1.32a1,1,0,0,0,1-.78,1.13,1.13,0,0,0,0-.28Z"/><path class="cls-1" d="M30.3,35.36a3.19,3.19,0,0,1-1.31.24,2.33,2.33,0,0,1-2.46-2.52,2.48,2.48,0,0,1,2.6-2.61,2.67,2.67,0,0,1,1.18.22l-.15.52a2.34,2.34,0,0,0-1-.21,1.85,1.85,0,0,0-1.94,2.05,1.81,1.81,0,0,0,1.91,2,2.57,2.57,0,0,0,1-.21Z"/><path class="cls-1" d="M33.14,35.52l-.05-.45h0A1.33,1.33,0,0,1,32,35.6a1,1,0,0,1-1.09-1c0-.86.77-1.34,2.15-1.33v-.07a.74.74,0,0,0-.81-.83,1.78,1.78,0,0,0-.93.27l-.15-.43a2.22,2.22,0,0,1,1.17-.32c1.09,0,1.36.75,1.36,1.46v1.34a5,5,0,0,0,.06.86ZM33,33.69c-.71,0-1.51.11-1.51.8a.57.57,0,0,0,.61.62.89.89,0,0,0,.86-.6.68.68,0,0,0,0-.21Z"/><path class="cls-1" d="M34.85,32.91c0-.37,0-.67,0-1h.57l0,.58h0a1.23,1.23,0,0,1,1.12-.66,1.06,1.06,0,0,1,1,.72h0a1.47,1.47,0,0,1,.4-.47,1.22,1.22,0,0,1,.79-.25c.47,0,1.17.31,1.17,1.55v2.1h-.63v-2c0-.69-.25-1.1-.78-1.1a.84.84,0,0,0-.77.59,1.07,1.07,0,0,0-.05.32v2.21h-.63V33.38c0-.57-.25-1-.75-1a1,1,0,0,0-.86,1v2.16h-.63Z"/><path class="cls-1" d="M41.1,35.52c0-.24,0-.61,0-.92V30.28h.64v2.24h0A1.33,1.33,0,0,1,43,31.86a1.6,1.6,0,0,1,1.51,1.82,1.7,1.7,0,0,1-1.6,1.91,1.27,1.27,0,0,1-1.2-.67h0l0,.59Zm.67-1.43a1.21,1.21,0,0,0,0,.24,1,1,0,0,0,1,.76c.68,0,1.09-.55,1.09-1.37s-.37-1.33-1.06-1.33a1,1,0,0,0-1,.8,1.28,1.28,0,0,0,0,.27Z"/><path class="cls-1" d="M45.45,33.06c0-.42,0-.78,0-1.11H46l0,.7h0a1.07,1.07,0,0,1,1-.78l.18,0v.61l-.22,0a.91.91,0,0,0-.87.83,1.83,1.83,0,0,0,0,.3v1.9h-.64Z"/><path class="cls-1" d="M48.75,30.94a.4.4,0,0,1-.8,0,.4.4,0,0,1,.41-.41A.39.39,0,0,1,48.75,30.94ZM48,35.52V31.94h.65v3.57Z"/><path class="cls-1" d="M53,30.28V34.6c0,.32,0,.68,0,.92h-.58l0-.62h0a1.32,1.32,0,0,1-1.22.7,1.63,1.63,0,0,1-1.53-1.82,1.71,1.71,0,0,1,1.6-1.92,1.19,1.19,0,0,1,1.08.55h0V30.28Zm-.65,3.12a1.15,1.15,0,0,0,0-.27,1,1,0,0,0-.94-.75c-.67,0-1.07.59-1.07,1.38s.35,1.32,1.06,1.32a1,1,0,0,0,1-.78,1.13,1.13,0,0,0,0-.28Z"/><path class="cls-1" d="M57.24,31.94c0,.26,0,.55,0,1V35a2.05,2.05,0,0,1-.51,1.63,1.89,1.89,0,0,1-1.3.43,2.31,2.31,0,0,1-1.19-.3l.16-.49a2,2,0,0,0,1,.28c.66,0,1.15-.35,1.15-1.25v-.4h0a1.28,1.28,0,0,1-1.14.6,1.6,1.6,0,0,1-1.52-1.74,1.71,1.71,0,0,1,1.61-1.9,1.19,1.19,0,0,1,1.11.62h0l0-.54Zm-.67,1.41a.92.92,0,0,0,0-.3.94.94,0,0,0-.91-.69c-.62,0-1.06.52-1.06,1.35S54.92,35,55.62,35a1,1,0,0,0,.9-.66,1.13,1.13,0,0,0,.05-.35Z"/><path class="cls-1" d="M58.78,33.85A1.14,1.14,0,0,0,60,35.09a2.35,2.35,0,0,0,1-.18l.11.46a2.89,2.89,0,0,1-1.19.22,1.66,1.66,0,0,1-1.76-1.8,1.73,1.73,0,0,1,1.68-1.93,1.51,1.51,0,0,1,1.48,1.68,2.44,2.44,0,0,1,0,.3Zm1.9-.46a.92.92,0,0,0-.9-1.06,1.08,1.08,0,0,0-1,1.06Z"/><path class="cls-1" d="M65.91,35.52l-.05-.45h0a1.33,1.33,0,0,1-1.09.53,1,1,0,0,1-1.09-1c0-.86.77-1.34,2.15-1.33v-.07a.74.74,0,0,0-.81-.83,1.78,1.78,0,0,0-.93.27l-.15-.43a2.22,2.22,0,0,1,1.17-.32c1.09,0,1.36.75,1.36,1.46v1.34a5,5,0,0,0,.06.86Zm-.1-1.82c-.71,0-1.51.11-1.51.8a.57.57,0,0,0,.61.62.89.89,0,0,0,.86-.6.68.68,0,0,0,0-.21Z"/><path class="cls-1" d="M67.61,32.91c0-.37,0-.67,0-1h.58l0,.59h0a1.31,1.31,0,0,1,1.18-.67c.49,0,1.26.3,1.26,1.52v2.13H70V33.46c0-.58-.21-1.06-.83-1.06a.92.92,0,0,0-.87.66.93.93,0,0,0,0,.3v2.15h-.65Z"/><path class="cls-1" d="M74.92,30.28V34.6c0,.32,0,.68,0,.92h-.58l0-.62h0a1.32,1.32,0,0,1-1.22.7,1.63,1.63,0,0,1-1.53-1.82,1.71,1.71,0,0,1,1.6-1.92,1.19,1.19,0,0,1,1.08.55h0V30.28Zm-.65,3.12a1.15,1.15,0,0,0,0-.27,1,1,0,0,0-.94-.75c-.67,0-1.07.59-1.07,1.38s.35,1.32,1.06,1.32a1,1,0,0,0,1-.78,1.13,1.13,0,0,0,0-.28Z"/><path class="cls-1" d="M77.84,30.61a6.69,6.69,0,0,1,1.23-.1,2,2,0,0,1,1.44.41,1.24,1.24,0,0,1,.39.94A1.31,1.31,0,0,1,80,33.13v0a1.24,1.24,0,0,1,.73,1,7.92,7.92,0,0,0,.38,1.37h-.66a6.45,6.45,0,0,1-.33-1.19c-.15-.69-.41-.94-1-1h-.61v2.16h-.64Zm.64,2.27h.66c.69,0,1.12-.38,1.12-.94S79.8,31,79.12,31a2.64,2.64,0,0,0-.63.06Z"/><path class="cls-1" d="M81.85,34.74a2.28,2.28,0,0,0,1.15.32c.66,0,1-.35,1-.85s-.27-.73-.94-1-1.31-.71-1.31-1.41a1.43,1.43,0,0,1,1.61-1.35,2.26,2.26,0,0,1,1.1.24l-.18.52a2,2,0,0,0-.94-.24c-.68,0-.94.41-.94.75s.3.69,1,1c.84.32,1.27.73,1.27,1.46s-.57,1.43-1.74,1.43a2.57,2.57,0,0,1-1.27-.32Z"/><path class="cls-1" d="M86.51,34,86,35.52h-.66l1.69-5h.78l1.7,5H88.8L88.27,34Zm1.63-.5L87.65,32c-.11-.32-.18-.62-.26-.91h0c-.07.3-.16.6-.25.9l-.49,1.44Z"/></svg>